# xmcd
#
# Track frame offsets: 
#        150
#        15911
#        30554
#        54845
#        67214
#        90134
#        119686
#        132569
#        213572
#        237543
#        243540
#        279599
#
# Disc length: 3992 seconds
#
# Revision: 1
# Processed by: cddbd v1.5.2PL0 Copyright (c) Steve Scherf et al.
# Submitted via: ExactAudioCopy v1.0b3
#
DISCID=aa0f960c
DTITLE=Reverend Gary Davis - Rev. Gary Davis At Home and Church 1962-1
DTITLE=967 Disc Three
DYEAR=2010
DGENRE=Blues
TTITLE0=Amazing Grace
TTITLE1=Sermon
TTITLE2=I'm A Soldier In The Army Of The Lord
TTITLE3=Sermon
TTITLE4=Lord, I Feel Just Like Goin' On
TTITLE5=Steal Away
TTITLE6=Can't Make This Journey By Myself
TTITLE7=Sermon
TTITLE8=I Will Overcome Someday
TTITLE9=God Be With You
TTITLE10=I Got Religion I'm So Glad
TTITLE11=I'm A Soldier In The Army Of The Lord
EXTD=
EXTT0=
EXTT1=
EXTT2=
EXTT3=
EXTT4=
EXTT5=
EXTT6=
EXTT7=
EXTT8=
EXTT9=
EXTT10=
EXTT11=
PLAYORDER=
